<svg xmlns="http://www.w3.org/2000/svg" viewBox="0 0 320 200">
  <!-- night-sky background -->
  <rect x="0" y="0" width="320" height="200" fill="#221f17"/>

  <!-- scattered stars -->
  <rect x="24" y="20" width="3" height="3" fill="#efe6d2"/>
  <rect x="70" y="14" width="2" height="2" fill="#c8923a"/>
  <rect x="118" y="26" width="3" height="3" fill="#efe6d2"/>
  <rect x="176" y="16" width="2" height="2" fill="#efe6d2"/>
  <rect x="232" y="22" width="3" height="3" fill="#c8923a"/>
  <rect x="288" y="18" width="2" height="2" fill="#efe6d2"/>
  <rect x="50" y="48" width="2" height="2" fill="#efe6d2"/>
  <rect x="262" y="50" width="2" height="2" fill="#efe6d2"/>
  <rect x="300" y="60" width="3" height="3" fill="#c8923a"/>
  <rect x="14" y="70" width="2" height="2" fill="#efe6d2"/>

  <!-- ===== invader row 1 (ochre crab-type) ===== -->
  <!-- alien A -->
  <g fill="#c8923a">
    <rect x="56" y="40" width="28" height="14"/>
    <rect x="52" y="46" width="36" height="8"/>
    <rect x="60" y="36" width="6" height="6"/>
    <rect x="74" y="36" width="6" height="6"/>
    <rect x="50" y="54" width="6" height="6"/>
    <rect x="84" y="54" width="6" height="6"/>
    <rect x="60" y="58" width="6" height="6"/>
    <rect x="74" y="58" width="6" height="6"/>
  </g>
  <rect x="62" y="44" width="6" height="6" fill="#221f17"/>
  <rect x="72" y="44" width="6" height="6" fill="#221f17"/>

  <!-- alien B -->
  <g fill="#c8923a">
    <rect x="146" y="40" width="28" height="14"/>
    <rect x="142" y="46" width="36" height="8"/>
    <rect x="150" y="36" width="6" height="6"/>
    <rect x="164" y="36" width="6" height="6"/>
    <rect x="140" y="54" width="6" height="6"/>
    <rect x="174" y="54" width="6" height="6"/>
    <rect x="150" y="58" width="6" height="6"/>
    <rect x="164" y="58" width="6" height="6"/>
  </g>
  <rect x="152" y="44" width="6" height="6" fill="#221f17"/>
  <rect x="162" y="44" width="6" height="6" fill="#221f17"/>

  <!-- alien C -->
  <g fill="#c8923a">
    <rect x="236" y="40" width="28" height="14"/>
    <rect x="232" y="46" width="36" height="8"/>
    <rect x="240" y="36" width="6" height="6"/>
    <rect x="254" y="36" width="6" height="6"/>
    <rect x="230" y="54" width="6" height="6"/>
    <rect x="264" y="54" width="6" height="6"/>
    <rect x="240" y="58" width="6" height="6"/>
    <rect x="254" y="58" width="6" height="6"/>
  </g>
  <rect x="242" y="44" width="6" height="6" fill="#221f17"/>
  <rect x="252" y="44" width="6" height="6" fill="#221f17"/>

  <!-- ===== invader row 2 (olive squid-type) ===== -->
  <!-- alien D -->
  <g fill="#6f6a3b">
    <rect x="100" y="86" width="12" height="6"/>
    <rect x="94" y="92" width="24" height="8"/>
    <rect x="90" y="100" width="32" height="8"/>
    <rect x="90" y="108" width="6" height="8"/>
    <rect x="104" y="108" width="6" height="8"/>
    <rect x="116" y="108" width="6" height="8"/>
  </g>
  <rect x="98" y="96" width="5" height="5" fill="#efe6d2"/>
  <rect x="109" y="96" width="5" height="5" fill="#efe6d2"/>

  <!-- alien E -->
  <g fill="#6f6a3b">
    <rect x="190" y="86" width="12" height="6"/>
    <rect x="184" y="92" width="24" height="8"/>
    <rect x="180" y="100" width="32" height="8"/>
    <rect x="180" y="108" width="6" height="8"/>
    <rect x="194" y="108" width="6" height="8"/>
    <rect x="206" y="108" width="6" height="8"/>
  </g>
  <rect x="188" y="96" width="5" height="5" fill="#efe6d2"/>
  <rect x="199" y="96" width="5" height="5" fill="#efe6d2"/>

  <!-- enemy bombs dropping -->
  <rect x="106" y="124" width="4" height="10" fill="#9b3a22"/>
  <rect x="196" y="126" width="4" height="10" fill="#9b3a22"/>

  <!-- ===== player laser cannon (oxblood + cream) ===== -->
  <g fill="#9b3a22">
    <rect x="142" y="170" width="36" height="14"/>
    <rect x="136" y="178" width="48" height="8"/>
    <rect x="156" y="160" width="8" height="12"/>
  </g>
  <rect x="158" y="156" width="4" height="6" fill="#efe6d2"/>

  <!-- player shot travelling up -->
  <rect x="158" y="130" width="4" height="22" fill="#efe6d2"/>

  <!-- ground line -->
  <rect x="0" y="190" width="320" height="3" fill="#6f6a3b"/>
</svg>
