<svg xmlns="http://www.w3.org/2000/svg" viewBox="0 0 320 200">
  <rect x="0" y="0" width="320" height="200" fill="#efe6d2"/>

  <!-- playing well (board backing) -->
  <rect x="106" y="14" width="108" height="172" rx="6" fill="#221f17"/>

  <!-- faint guide grid inside the well -->
  <rect x="124" y="14" width="2" height="172" fill="#3a3527"/>
  <rect x="142" y="14" width="2" height="172" fill="#3a3527"/>
  <rect x="160" y="14" width="2" height="172" fill="#3a3527"/>
  <rect x="178" y="14" width="2" height="172" fill="#3a3527"/>
  <rect x="196" y="14" width="2" height="172" fill="#3a3527"/>

  <!-- ===== falling pieces ===== -->

  <!-- I piece (vertical bar), ochre -->
  <rect x="124" y="22" width="18" height="18" rx="3" fill="#c8923a"/>
  <rect x="124" y="40" width="18" height="18" rx="3" fill="#c8923a"/>
  <rect x="124" y="58" width="18" height="18" rx="3" fill="#c8923a"/>
  <rect x="124" y="76" width="18" height="18" rx="3" fill="#c8923a"/>

  <!-- T piece, oxblood -->
  <rect x="160" y="40" width="18" height="18" rx="3" fill="#9b3a22"/>
  <rect x="178" y="40" width="18" height="18" rx="3" fill="#9b3a22"/>
  <rect x="196" y="40" width="18" height="18" rx="3" fill="#9b3a22"/>
  <rect x="178" y="58" width="18" height="18" rx="3" fill="#9b3a22"/>

  <!-- O piece (square), olive -->
  <rect x="160" y="86" width="18" height="18" rx="3" fill="#6f6a3b"/>
  <rect x="178" y="86" width="18" height="18" rx="3" fill="#6f6a3b"/>
  <rect x="160" y="104" width="18" height="18" rx="3" fill="#6f6a3b"/>
  <rect x="178" y="104" width="18" height="18" rx="3" fill="#6f6a3b"/>

  <!-- ===== settled stack at the bottom ===== -->

  <!-- L piece, ochre -->
  <rect x="106" y="132" width="18" height="18" rx="3" fill="#c8923a"/>
  <rect x="106" y="150" width="18" height="18" rx="3" fill="#c8923a"/>
  <rect x="106" y="168" width="18" height="18" rx="3" fill="#c8923a"/>
  <rect x="124" y="168" width="18" height="18" rx="3" fill="#c8923a"/>

  <!-- S/Z fill, olive -->
  <rect x="142" y="150" width="18" height="18" rx="3" fill="#6f6a3b"/>
  <rect x="160" y="150" width="18" height="18" rx="3" fill="#6f6a3b"/>
  <rect x="142" y="168" width="18" height="18" rx="3" fill="#6f6a3b"/>

  <!-- right column fill, oxblood -->
  <rect x="160" y="168" width="18" height="18" rx="3" fill="#9b3a22"/>
  <rect x="178" y="168" width="18" height="18" rx="3" fill="#9b3a22"/>
  <rect x="196" y="150" width="18" height="18" rx="3" fill="#9b3a22"/>
  <rect x="196" y="168" width="18" height="18" rx="3" fill="#9b3a22"/>

  <!-- a completed-line highlight (cream row about to clear) -->
  <rect x="178" y="150" width="18" height="18" rx="3" fill="#efe6d2"/>

  <!-- ===== side preview box ===== -->
  <rect x="232" y="20" width="64" height="56" rx="6" fill="#221f17"/>
  <!-- next piece preview: small T, cream -->
  <rect x="248" y="36" width="14" height="14" rx="2" fill="#efe6d2"/>
  <rect x="262" y="36" width="14" height="14" rx="2" fill="#efe6d2"/>
  <rect x="276" y="36" width="14" height="14" rx="2" fill="#efe6d2"/>
  <rect x="262" y="50" width="14" height="14" rx="2" fill="#efe6d2"/>

  <!-- score pips below preview -->
  <rect x="232" y="88" width="64" height="10" rx="5" fill="#c8923a"/>
  <rect x="232" y="106" width="44" height="10" rx="5" fill="#9b3a22"/>
  <rect x="232" y="124" width="54" height="10" rx="5" fill="#6f6a3b"/>

  <!-- down arrow hint (drop) on left -->
  <polygon points="60,92 60,116 50,116 70,138 90,116 80,116 80,92" fill="#9b3a22"/>
</svg>
